<svg width="366" height="161" viewBox="0 0 366 161" fill="none" xmlns="http://www.w3.org/2000/svg">
<rect x="35" y="28" width="146" height="118" fill="#EA720B"/>
<rect x="35" y="28" width="146" height="118" fill="#EA720B"/>
<rect x="35" y="28" width="146" height="118" fill="#EA720B"/>
<rect x="52" y="43" width="146" height="118" fill="#EA720B"/>
<rect x="52" y="43" width="146" height="118" fill="#EA720B"/>
<rect x="52" y="43" width="146" height="118" fill="#EAA109"/>
<path d="M112.227 126V91.0909H124.023C126.761 91.0909 129 91.5852 130.739 92.5739C132.489 93.5511 133.784 94.875 134.625 96.5455C135.466 98.2159 135.886 100.08 135.886 102.136C135.886 104.193 135.466 106.062 134.625 107.744C133.795 109.426 132.511 110.767 130.773 111.767C129.034 112.756 126.807 113.25 124.091 113.25H115.636V109.5H123.955C125.83 109.5 127.335 109.176 128.472 108.528C129.608 107.881 130.432 107.006 130.943 105.903C131.466 104.79 131.727 103.534 131.727 102.136C131.727 100.739 131.466 99.4886 130.943 98.3864C130.432 97.2841 129.602 96.4205 128.455 95.7955C127.307 95.1591 125.784 94.8409 123.886 94.8409H116.455V126H112.227ZM141.537 126V104.182H144.776V107.477H145.003C145.401 106.398 146.12 105.522 147.162 104.849C148.204 104.177 149.378 103.841 150.685 103.841C150.931 103.841 151.239 103.846 151.608 103.855C151.977 103.865 152.257 103.879 152.446 103.898V107.307C152.332 107.278 152.072 107.236 151.665 107.179C151.267 107.113 150.846 107.08 150.401 107.08C149.34 107.08 148.393 107.302 147.56 107.747C146.736 108.183 146.082 108.789 145.599 109.565C145.126 110.332 144.889 111.208 144.889 112.193V126H141.537ZM164.619 126.455C162.65 126.455 160.921 125.986 159.435 125.048C157.957 124.111 156.802 122.799 155.969 121.114C155.145 119.428 154.733 117.458 154.733 115.205C154.733 112.932 155.145 110.948 155.969 109.253C156.802 107.558 157.957 106.241 159.435 105.304C160.921 104.366 162.65 103.898 164.619 103.898C166.589 103.898 168.313 104.366 169.79 105.304C171.277 106.241 172.432 107.558 173.256 109.253C174.089 110.948 174.506 112.932 174.506 115.205C174.506 117.458 174.089 119.428 173.256 121.114C172.432 122.799 171.277 124.111 169.79 125.048C168.313 125.986 166.589 126.455 164.619 126.455ZM164.619 123.443C166.116 123.443 167.347 123.06 168.312 122.293C169.278 121.526 169.993 120.517 170.457 119.267C170.921 118.017 171.153 116.663 171.153 115.205C171.153 113.746 170.921 112.387 170.457 111.128C169.993 109.868 169.278 108.85 168.312 108.074C167.347 107.297 166.116 106.909 164.619 106.909C163.123 106.909 161.892 107.297 160.926 108.074C159.96 108.85 159.245 109.868 158.781 111.128C158.317 112.387 158.085 113.746 158.085 115.205C158.085 116.663 158.317 118.017 158.781 119.267C159.245 120.517 159.96 121.526 160.926 122.293C161.892 123.06 163.123 123.443 164.619 123.443ZM179.623 126V104.182H182.862V107.591H183.146C183.6 106.426 184.334 105.522 185.347 104.878C186.361 104.224 187.577 103.898 188.998 103.898C190.437 103.898 191.635 104.224 192.592 104.878C193.558 105.522 194.31 106.426 194.85 107.591H195.077C195.636 106.464 196.474 105.569 197.592 104.906C198.709 104.234 200.049 103.898 201.612 103.898C203.562 103.898 205.158 104.509 206.398 105.73C207.639 106.942 208.259 108.831 208.259 111.398V126H204.907V111.398C204.907 109.788 204.467 108.637 203.586 107.946C202.705 107.255 201.668 106.909 200.475 106.909C198.941 106.909 197.753 107.373 196.91 108.301C196.067 109.22 195.646 110.384 195.646 111.795V126H192.237V111.057C192.237 109.816 191.834 108.817 191.029 108.06C190.224 107.293 189.187 106.909 187.918 106.909C187.047 106.909 186.233 107.141 185.475 107.605C184.727 108.069 184.121 108.713 183.657 109.537C183.202 110.351 182.975 111.294 182.975 112.364V126H179.623ZM214.388 134.182V104.182H217.627V107.648H218.025C218.271 107.269 218.612 106.786 219.048 106.199C219.493 105.602 220.127 105.072 220.951 104.608C221.784 104.134 222.911 103.898 224.332 103.898C226.169 103.898 227.788 104.357 229.19 105.276C230.591 106.194 231.685 107.496 232.471 109.182C233.257 110.867 233.65 112.856 233.65 115.148C233.65 117.458 233.257 119.461 232.471 121.156C231.685 122.842 230.596 124.149 229.204 125.077C227.812 125.995 226.207 126.455 224.388 126.455C222.987 126.455 221.865 126.223 221.022 125.759C220.179 125.285 219.531 124.75 219.076 124.153C218.621 123.547 218.271 123.045 218.025 122.648H217.741V134.182H214.388ZM217.684 115.091C217.684 116.739 217.925 118.192 218.408 119.452C218.891 120.702 219.597 121.682 220.525 122.392C221.453 123.093 222.589 123.443 223.934 123.443C225.335 123.443 226.505 123.074 227.442 122.335C228.389 121.587 229.1 120.583 229.573 119.324C230.056 118.055 230.298 116.644 230.298 115.091C230.298 113.557 230.061 112.174 229.587 110.943C229.123 109.703 228.418 108.723 227.471 108.003C226.533 107.274 225.354 106.909 223.934 106.909C222.57 106.909 221.424 107.255 220.496 107.946C219.568 108.628 218.868 109.584 218.394 110.815C217.921 112.037 217.684 113.462 217.684 115.091ZM248.252 104.182V107.023H236.945V104.182H248.252ZM240.241 98.9545H243.593V119.75C243.593 120.697 243.73 121.407 244.005 121.881C244.289 122.345 244.649 122.657 245.085 122.818C245.53 122.97 245.998 123.045 246.491 123.045C246.86 123.045 247.163 123.027 247.4 122.989C247.637 122.941 247.826 122.903 247.968 122.875L248.65 125.886C248.423 125.972 248.105 126.057 247.698 126.142C247.291 126.237 246.775 126.284 246.15 126.284C245.203 126.284 244.275 126.08 243.366 125.673C242.466 125.266 241.718 124.646 241.121 123.812C240.534 122.979 240.241 121.928 240.241 120.659V98.9545ZM261.924 126.455C259.879 126.455 258.117 125.972 256.64 125.006C255.163 124.04 254.026 122.709 253.231 121.014C252.435 119.319 252.038 117.383 252.038 115.205C252.038 112.989 252.445 111.033 253.259 109.338C254.083 107.634 255.229 106.303 256.697 105.347C258.174 104.381 259.897 103.898 261.867 103.898C263.401 103.898 264.784 104.182 266.015 104.75C267.246 105.318 268.254 106.114 269.04 107.136C269.826 108.159 270.314 109.352 270.504 110.716H267.151C266.896 109.722 266.327 108.841 265.447 108.074C264.576 107.297 263.401 106.909 261.924 106.909C260.617 106.909 259.471 107.25 258.487 107.932C257.511 108.604 256.749 109.556 256.2 110.787C255.66 112.009 255.39 113.443 255.39 115.091C255.39 116.777 255.655 118.244 256.185 119.494C256.725 120.744 257.483 121.715 258.458 122.406C259.443 123.098 260.598 123.443 261.924 123.443C262.795 123.443 263.586 123.292 264.296 122.989C265.006 122.686 265.608 122.25 266.1 121.682C266.593 121.114 266.943 120.432 267.151 119.636H270.504C270.314 120.924 269.845 122.084 269.097 123.116C268.359 124.139 267.379 124.954 266.157 125.56C264.945 126.156 263.534 126.455 261.924 126.455ZM275.404 126V104.182H278.643V107.477H278.87C279.268 106.398 279.987 105.522 281.029 104.849C282.071 104.177 283.245 103.841 284.552 103.841C284.798 103.841 285.106 103.846 285.475 103.855C285.844 103.865 286.124 103.879 286.313 103.898V107.307C286.2 107.278 285.939 107.236 285.532 107.179C285.134 107.113 284.713 107.08 284.268 107.08C283.207 107.08 282.26 107.302 281.427 107.747C280.603 108.183 279.95 108.789 279.467 109.565C278.993 110.332 278.756 111.208 278.756 112.193V126H275.404ZM296.707 126.511C295.325 126.511 294.07 126.251 292.943 125.73C291.816 125.2 290.921 124.438 290.259 123.443C289.596 122.439 289.264 121.227 289.264 119.807C289.264 118.557 289.51 117.544 290.003 116.767C290.495 115.981 291.153 115.366 291.977 114.92C292.801 114.475 293.71 114.144 294.705 113.926C295.708 113.699 296.717 113.519 297.73 113.386C299.056 113.216 300.131 113.088 300.955 113.003C301.788 112.908 302.394 112.752 302.773 112.534C303.161 112.316 303.355 111.937 303.355 111.398V111.284C303.355 109.883 302.972 108.794 302.205 108.017C301.447 107.241 300.296 106.852 298.753 106.852C297.152 106.852 295.898 107.203 294.989 107.903C294.08 108.604 293.44 109.352 293.071 110.148L289.889 109.011C290.457 107.686 291.215 106.653 292.162 105.915C293.118 105.167 294.16 104.646 295.287 104.352C296.423 104.049 297.541 103.898 298.639 103.898C299.34 103.898 300.145 103.983 301.054 104.153C301.973 104.314 302.858 104.651 303.71 105.162C304.572 105.673 305.287 106.445 305.855 107.477C306.423 108.509 306.707 109.892 306.707 111.625V126H303.355V123.045H303.185C302.957 123.519 302.579 124.026 302.048 124.565C301.518 125.105 300.813 125.564 299.932 125.943C299.051 126.322 297.976 126.511 296.707 126.511ZM297.219 123.5C298.545 123.5 299.662 123.24 300.571 122.719C301.49 122.198 302.181 121.526 302.645 120.702C303.118 119.878 303.355 119.011 303.355 118.102V115.034C303.213 115.205 302.901 115.361 302.418 115.503C301.944 115.635 301.395 115.754 300.77 115.858C300.154 115.953 299.553 116.038 298.966 116.114C298.388 116.18 297.92 116.237 297.56 116.284C296.688 116.398 295.874 116.582 295.116 116.838C294.368 117.084 293.762 117.458 293.298 117.96C292.844 118.453 292.616 119.125 292.616 119.977C292.616 121.142 293.047 122.023 293.909 122.619C294.78 123.206 295.884 123.5 297.219 123.5ZM322.542 104.182V107.023H310.781V104.182H322.542ZM314.303 126V101.17C314.303 99.9205 314.597 98.8788 315.184 98.0455C315.771 97.2121 316.533 96.5871 317.471 96.1705C318.408 95.7538 319.398 95.5455 320.44 95.5455C321.263 95.5455 321.936 95.6117 322.457 95.7443C322.978 95.8769 323.366 96 323.621 96.1136L322.656 99.0114C322.485 98.9545 322.248 98.8835 321.945 98.7983C321.652 98.7131 321.263 98.6705 320.781 98.6705C319.673 98.6705 318.872 98.9498 318.38 99.5085C317.897 100.067 317.656 100.886 317.656 101.966V126H314.303ZM336.729 104.182V107.023H325.422V104.182H336.729ZM328.717 98.9545H332.07V119.75C332.07 120.697 332.207 121.407 332.482 121.881C332.766 122.345 333.125 122.657 333.561 122.818C334.006 122.97 334.475 123.045 334.967 123.045C335.337 123.045 335.64 123.027 335.876 122.989C336.113 122.941 336.303 122.903 336.445 122.875L337.126 125.886C336.899 125.972 336.582 126.057 336.175 126.142C335.768 126.237 335.251 126.284 334.626 126.284C333.679 126.284 332.751 126.08 331.842 125.673C330.943 125.266 330.195 124.646 329.598 123.812C329.011 122.979 328.717 121.928 328.717 120.659V98.9545Z" fill="black"/>
<line x1="2.27813" y1="154.188" x2="162.278" y2="2.1875" stroke="white" stroke-width="5"/>
</svg>
